<?xml version="1.0" standalone="no"?>
<!DOCTYPE svg PUBLIC "-//W3C//DTD SVG 20010904//EN"
 "http://www.w3.org/TR/2001/REC-SVG-20010904/DTD/svg10.dtd">
<svg version="1.0" xmlns="http://www.w3.org/2000/svg"
 width="39.000000pt" height="46.000000pt" viewBox="0 0 39.000000 46.000000"
 preserveAspectRatio="xMidYMid meet">
<metadata>
Created by potrace 1.10, written by Peter Selinger 2001-2011
</metadata>
<g transform="translate(0.000000,46.000000) scale(0.100000,-0.100000)"
fill="#000000" stroke="none">
<path d="M80 427 c-38 -33 -55 -91 -39 -129 11 -27 10 -32 -5 -44 -19 -13 -14
-34 8 -34 6 0 16 -15 21 -32 8 -27 17 -34 48 -41 30 -7 37 -13 31 -26 -10 -24
-13 -121 -3 -121 5 0 9 4 9 9 0 5 9 11 20 14 13 3 18 10 14 21 -3 9 -1 16 4
16 14 0 25 -37 16 -52 -5 -9 -2 -8 9 1 11 8 15 21 12 32 -8 23 10 26 19 3 4
-10 13 -13 26 -9 14 4 20 2 20 -9 0 -8 -8 -17 -17 -19 -11 -3 -7 -5 10 -6 20
-1 27 4 27 17 0 10 11 29 25 42 13 12 21 28 18 34 -9 14 -4 57 8 72 5 6 12 32
15 57 5 37 3 50 -15 73 -11 15 -21 33 -21 40 0 8 -4 22 -9 32 -5 9 -13 31 -18
47 -6 23 -15 31 -38 33 -17 2 -33 -2 -40 -11 -17 -23 -62 -27 -81 -6 -22 25
-43 23 -74 -4z m62 -7 c7 -11 22 -20 33 -20 18 0 18 -1 -3 -16 -18 -13 -26
-13 -38 -3 -8 6 -17 9 -21 5 -3 -3 -1 -6 5 -6 7 0 12 -5 12 -11 0 -6 -7 -8
-17 -5 -10 4 -15 4 -11 1 3 -4 -2 -15 -12 -25 -13 -13 -17 -28 -13 -53 3 -22
0 -38 -8 -43 -9 -5 -10 -2 -6 11 4 10 2 33 -5 52 -11 31 -11 36 5 48 12 8 14
15 8 20 -6 3 -11 11 -11 18 0 8 3 8 12 -1 17 -17 33 -15 19 2 -9 11 -8 18 4
30 22 21 32 20 47 -4z m156 8 c7 -7 12 -19 12 -29 0 -12 -6 -15 -25 -11 -14 2
-32 -1 -40 -8 -8 -7 -22 -10 -31 -6 -13 5 -11 11 13 35 30 32 52 38 71 19z
m-48 -79 c25 -7 51 -13 58 -12 6 0 12 -5 12 -13 0 -8 -4 -14 -10 -14 -5 0 -10
-8 -11 -17 0 -11 -3 -13 -6 -5 -2 6 -11 12 -19 12 -9 0 -13 4 -9 9 3 5 0 13
-6 17 -8 5 -9 3 -4 -6 6 -10 3 -12 -13 -8 -13 4 -23 0 -26 -8 -3 -8 1 -14 10
-14 27 0 112 -41 118 -57 4 -8 -5 -28 -18 -44 -21 -24 -26 -26 -36 -14 -12 15
-11 16 12 19 7 0 14 10 15 21 2 11 0 15 -3 8 -3 -7 -12 -9 -21 -6 -8 3 -18 1
-22 -5 -3 -6 -28 -17 -54 -23 -42 -12 -49 -11 -73 7 -30 22 -31 41 -2 36 11
-2 18 3 18 12 0 17 -17 20 -44 10 -21 -8 -20 -24 4 -54 11 -14 20 -29 20 -35
0 -5 -5 -3 -10 5 -7 12 -12 12 -22 2 -17 -17 -33 -15 -18 3 11 13 10 18 -4 28
-14 10 -15 18 -7 37 5 14 13 42 16 63 5 33 12 41 48 56 23 10 47 15 52 11 6
-5 30 -14 55 -21z m60 21 c11 -6 12 -12 4 -20 -14 -14 -44 -2 -37 16 6 16 12
17 33 4z m-40 -191 c0 -6 -6 -9 -14 -6 -8 3 -20 0 -26 -8 -9 -11 -7 -12 12 -8
13 3 18 1 12 -4 -18 -13 -33 -48 -26 -59 11 -14 52 -12 52 3 0 7 -10 13 -22
13 -21 1 -22 2 -5 14 9 7 17 18 17 25 0 14 1 14 38 -2 22 -9 28 -17 23 -26 -5
-8 -13 -11 -19 -7 -6 3 -13 2 -16 -3 -4 -5 2 -11 11 -13 14 -3 10 -8 -16 -22
-18 -10 -36 -14 -40 -9 -3 4 -28 8 -55 8 -55 0 -65 11 -38 40 19 21 22 27 22
46 0 5 4 7 10 4 5 -3 20 1 32 9 26 19 48 21 48 5z"/>
<path d="M187 310 c-6 -25 -27 -26 -27 -2 -1 16 -1 16 -11 -1 -7 -12 -17 -16
-30 -12 -14 5 -19 2 -18 -12 0 -10 2 -13 5 -8 2 6 24 9 48 7 37 -3 44 -1 49
17 3 12 2 23 -3 26 -4 3 -10 -4 -13 -15z"/>
<path d="M223 262 c-25 -4 -27 -10 -14 -31 6 -9 14 -11 26 -3 10 5 27 7 39 4
12 -3 19 -3 16 -1 -34 27 -48 34 -67 31z"/>
</g>
</svg>
